<svg width="35" height="33" viewBox="0 0 35 33" fill="none" xmlns="http://www.w3.org/2000/svg">
<path d="M13.5 16.5L6.5 7H12.5L16.5 12L21 7H26.5L19 17V27.5H13.5V16.5Z" fill="#00B5A8"/>
<path d="M6.5 1L1.18398 6.31602C1.07841 6.42159 1.06654 6.58871 1.15611 6.70815L8.44 16.42C8.47895 16.4719 8.5 16.5351 8.5 16.6V31.7C8.5 31.8657 8.63431 32 8.8 32H14.3757C14.4553 32 14.5316 31.9684 14.5879 31.9121L18.9121 27.5879C18.9684 27.5316 19 27.4553 19 27.3757V17.1C19 17.0351 19.0211 16.9719 19.06 16.92L26.14 7.48C26.2883 7.28223 26.1472 7 25.9 7H21.1336C21.0486 7 20.9675 7.0361 20.9106 7.09931L16.7364 11.7373C16.6126 11.8749 16.3949 11.8686 16.2792 11.724L12.5901 7.11259C12.5331 7.04143 12.4469 7 12.3558 7H7.22426C6.95699 7 6.82314 6.67686 7.01213 6.48787L11.4121 2.08787C11.4684 2.03161 11.5447 2 11.6243 2H18.362C18.4496 2 18.5328 2.03827 18.5898 2.10476L21.2892 5.25403C21.4029 5.38671 21.6055 5.39449 21.7291 5.27092L24.9121 2.08787C24.9684 2.03161 25.0447 2 25.1243 2H33.4124C33.6573 2 33.799 2.2776 33.6553 2.47595L23.557 16.4213C23.52 16.4724 23.5 16.534 23.5 16.5972V27.3757C23.5 27.4553 23.4684 27.5316 23.4121 27.5879L19 32" stroke="black" stroke-width="1.5" stroke-linecap="round" stroke-linejoin="bevel"/>
<path d="M10.5 12L14 17V27.5M14 27.5H19M14 27.5L9.5 32" stroke="black" stroke-width="1.5" stroke-linecap="round" stroke-linejoin="bevel"/>
</svg>
